<?xml version="1.0" standalone="no"?><!DOCTYPE svg PUBLIC "-//W3C//DTD SVG 1.1//EN" "http://www.w3.org/Graphics/SVG/1.1/DTD/svg11.dtd"><svg t="1561536406543" class="icon" viewBox="0 0 1024 1024" version="1.1" xmlns="http://www.w3.org/2000/svg" p-id="9199" xmlns:xlink="http://www.w3.org/1999/xlink" width="200" height="200"><defs><style type="text/css"></style></defs><path d="M496.057 682.682c0.102 0.083 0.213 0.152 0.317 0.234a25.215 25.215 0 0 0 18.05 5.316l0.024-0.004a25.234 25.234 0 0 0 9.303-2.771c0.112-0.059 0.22-0.134 0.331-0.197a25.03 25.03 0 0 0 1.82-1.076c0.308-0.203 0.599-0.443 0.899-0.662 0.384-0.278 0.774-0.539 1.146-0.842 0.099-0.081 0.187-0.176 0.285-0.258a26.216 26.216 0 0 0 1.633-1.475l302.183-302.171c9.865-9.866 9.866-25.861 0-35.727s-25.861-9.866-35.727 0L512 627.357 227.678 343.049c-9.866-9.866-25.861-9.866-35.724 0-4.932 4.932-7.398 11.397-7.398 17.863s2.467 12.929 7.399 17.864l302.183 302.171c0.249 0.249 0.518 0.464 0.774 0.7 0.379 0.349 0.749 0.712 1.144 1.034z" fill="#8a8a8a" p-id="9200"></path></svg>