<?xml version="1.0" standalone="no"?><!DOCTYPE svg PUBLIC "-//W3C//DTD SVG 1.1//EN" "http://www.w3.org/Graphics/SVG/1.1/DTD/svg11.dtd"><svg class="icon" width="200px" height="200.00px" viewBox="0 0 1024 1024" version="1.1" xmlns="http://www.w3.org/2000/svg"><path fill="#333333" d="M974.4836 796c-21.6-49.6-64-80.8-132.8-97.6C667.2836 656 668.0836 640.8 688.0836 600.8c72-144 126.4-333.6 48-473.6-44.8-80-126.4-125.6-224-125.6C413.6836 1.6 332.0836 48 286.4836 129.6c-64.8 115.2-47.2 283.2 49.6 472 20.8 40 20.8 54.4-153.6 97.6-69.6 16.8-111.2 48-132.8 97.6C28.0836 845.6 31.2836 896.8 31.2836 1024l960.8 0C992.0836 895.2 995.2836 845.6 974.4836 796L974.4836 796zM111.2836 939.2c0-92.8 5.6-114.4 81.6-132.8 103.2-25.6 201.6-48 234.4-124 16-37.6 12-80-12-127.2-81.6-160-100.8-300.8-52.8-386.4 29.6-52.8 82.4-81.6 150.4-81.6 67.2 0 119.2 28.8 148.8 80 60.8 108 4 276-52 388.8-23.2 47.2-27.2 89.6-11.2 127.2 32 75.2 130.4 97.6 233.6 123.2 76 18.4 81.6 40 81.6 132.8L111.2836 939.2 111.2836 939.2z" /></svg>