<?xml version="1.0" standalone="no"?><!DOCTYPE svg PUBLIC "-//W3C//DTD SVG 1.1//EN" "http://www.w3.org/Graphics/SVG/1.1/DTD/svg11.dtd"><svg t="1561709078761" class="icon" viewBox="0 0 1024 1024" version="1.1" xmlns="http://www.w3.org/2000/svg" p-id="40922" xmlns:xlink="http://www.w3.org/1999/xlink" width="200" height="200"><defs><style type="text/css"></style></defs><path d="M511.809 840.541c-70.89 0-128.368-57.229-128.368-127.52 0-70.289 57.628-127.518 128.368-127.518 70.857 0 128.349 57.229 128.349 127.518 0.135 70.292-57.492 127.52-128.349 127.52z m0-182.881c-30.588 0-55.329 24.824-55.329 55.494 0 30.674 24.89 55.48 55.329 55.48 30.554 0 55.311-24.807 55.311-55.48 0-30.67-24.757-55.494-55.311-55.494z m0 0" fill="#d81e06" p-id="40923"></path><path d="M881.982 409.956H843.98v-71.088c0-89.767-34.221-174.6-96.58-238.625C684.793 35.817 601.607 0.198 513.424 0.198c-88.315 0-171.366 35.503-233.993 100.044-62.209 64.026-96.562 148.859-96.562 238.625v71.088h-40.984c-40.584 0-73.438 32.421-73.438 72.438v468.984c0 40.018 32.854 72.424 73.438 72.424h740.23c40.568 0 73.438-32.406 73.438-72.424V482.528c-0.133-40.018-32.987-72.572-73.571-72.572z m-626.224-71.088c0-71.223 27.056-138.197 76.287-188.744C380.743 99.976 445.251 72.37 513.424 72.37c68.158 0 132.551 27.605 181.381 77.753 49.08 50.547 76.27 117.654 76.27 188.744v71.088H255.758v-71.087z m626.625 612.646v0.133c0 0.133-0.268 0.266-0.268 0.266H141.618c-0.149 0-0.284-0.266-0.284-0.266V482.395c0-0.133 0.284-0.266 0.284-0.266h740.497c0.133 0 0.268 0.266 0.268 0.266v469.119z m0 0" fill="#d81e06" p-id="40924"></path></svg>