<?xml version="1.0" standalone="no"?><!DOCTYPE svg PUBLIC "-//W3C//DTD SVG 1.1//EN" "http://www.w3.org/Graphics/SVG/1.1/DTD/svg11.dtd"><svg class="icon" width="200px" height="200.00px" viewBox="0 0 1024 1024" version="1.1" xmlns="http://www.w3.org/2000/svg"><path fill="#8a8a8a" d="M345.763396 201.653743c23.812335-29.027104 53.188386-47.91222 80.491219-60.170404 13.139252-5.898337 26.89658-10.092869 40.590464-12.890588 15.123442-3.089361 30.255071-4.466732 44.416606-4.551666l0.080841 0 0.656963-0.001023 0.656963 0.001023 0.080841 0c14.160511 0.084934 29.293163 1.462305 44.416606 4.551666 13.693884 2.797719 27.451212 6.992251 40.590464 12.890588 27.303856 12.258185 56.679907 31.143301 80.490196 60.170404 18.919908 23.063275 34.198893 52.305273 41.966811 89.353051 5.51255 26.299993 7.27366 55.945173 4.76349 84.953857-2.381234 27.532053-8.610098 54.831816-19.12457 78.638011-5.730515 12.974499-13.662161 28.105105-24.632004 45.044916-8.782014 13.558807-19.429515 28.128641-32.336476 43.444465-2.281973 4.033873-10.17985 20.395516 5.688559 29.872355 18.24248 10.894118 62.590524 37.636179 103.817484 62.845327 27.00812 16.514115 53.829999 33.085536 73.069179 45.339628 14.011108 8.9263 30.843472 20.166295 44.925189 34.5724 15.692401 16.056698 27.712155 35.672454 29.183669 59.82555 0.431835 7.098675 0.63138 15.47239 0.664126 24.229844 0.035816 9.707083-0.157589 19.24532-0.477884 27.582195-0.740874 19.303648-4.740978 36.205597-14.56881 49.252751-10.765181 14.288424-27.005051 22.817682-51.15303 23.351847l-0.404206 0c-94.847182-0.343831-203.76073-0.514723-327.617619-0.514723-123.854842 0-232.770438 0.170892-327.615573 0.514723l-0.405229 0c-24.14798-0.534166-40.387849-9.063423-51.152007-23.351847-9.827833-13.047154-13.82896-29.949103-14.569834-49.252751-0.319272-8.336876-0.512676-17.876136-0.476861-27.584242 0.031722-8.755408 0.233314-17.129122 0.664126-24.227798 1.471514-24.153096 13.490246-43.767829 29.183669-59.82555 14.081717-14.406105 30.913057-25.647123 44.925189-34.5724 19.237133-12.252045 46.056965-28.822442 73.062016-45.334511 41.229007-25.211195 85.581144-51.956326 103.823624-62.850443 15.869433-9.477862 7.971555-25.838482 5.689582-29.872355-12.905938-15.315824-23.554462-29.885658-32.336476-43.444465-10.970866-16.939811-18.902512-32.070416-24.632004-45.044916-10.514471-23.806195-16.743336-51.105958-19.12457-78.638011-2.51017-29.008684-0.748037-58.652841 4.76349-84.953857C311.564503 253.959016 326.843488 224.717018 345.763396 201.653743M443.06549 179.147146c-22.375613 10.045797-46.330188 25.375947-65.457828 48.693002-14.978133 18.259876-27.122731 41.641399-33.398668 71.573105-4.674463 22.298865-6.138814 47.762817-3.956102 72.992431 2.01796 23.318078 7.145747 46.107107 15.730263 65.542762 5.055133 11.44568 11.963473 24.659633 21.399379 39.22742 8.037047 12.407588 17.994839 25.961278 30.332842 40.502459l0.88823 1.046842 0.727571 1.13587c0.103354 0.159636 36.399001 55.583946-18.717294 88.49859-17.200754 10.269901-60.733223 36.538171-103.501282 62.688761-28.656667 17.522072-55.791677 34.263361-72.415286 44.849464-12.012591 7.653307-26.351158 17.196661-37.490869 28.593222-9.529027 9.746992-16.783245 20.962427-17.545608 33.476439-0.438998 7.208169-0.63752 14.642488-0.664126 21.802562-0.032746 8.776897 0.159636 17.871019 0.476861 26.130124 0.431835 11.237949 2.191922 20.321838 6.327102 25.812899 3.194762 4.242627 9.113565 6.800893 18.937305 7.024997 124.479059-0.449231 233.327116-0.674359 327.260485-0.674359 93.935416 0 202.782449 0.225127 327.262532 0.674359 9.822716-0.225127 15.742543-2.783393 18.937305-7.024997 4.13518-5.490038 5.895267-14.573927 6.327102-25.812899 0.316202-8.259104 0.509606-17.353227 0.476861-26.128077-0.026606-7.16212-0.226151-14.59644-0.664126-21.804608-0.762363-12.515035-8.017604-23.728424-17.545608-33.476439-11.139711-11.397584-25.477254-20.940938-37.490869-28.593222-16.622586-10.588149-43.763736-27.330462-72.421426-44.854581-42.766013-26.148543-86.295412-52.413743-103.494119-62.683644-55.116295-32.914644-18.820648-88.338954-18.718317-88.49859l0.728594-1.13587 0.88823-1.046842c12.338003-14.541181 22.295795-28.094872 30.332842-40.502459 9.434883-14.567787 16.344247-27.78174 21.399379-39.22742 8.584516-19.436678 13.712303-42.224684 15.730263-65.542762 2.181689-25.229614 0.718361-50.693566-3.956102-72.992431-6.274914-29.931706-18.420535-53.31323-33.398668-71.573105-19.126616-23.317055-43.082214-38.647205-65.457828-48.693002-10.289344-4.618181-21.150716-7.92039-32.024367-10.141988-12.443403-2.541893-24.814152-3.674693-36.334533-3.744277l0 0-0.576121-0.001023-0.576121 0.001023 0 0c-11.521404 0.068562-23.892153 1.201361-36.334533 3.744277C464.215182 171.225733 453.352787 174.528965 443.06549 179.147146z"  /></svg>