<?xml version="1.0" standalone="no"?><!DOCTYPE svg PUBLIC "-//W3C//DTD SVG 1.1//EN" "http://www.w3.org/Graphics/SVG/1.1/DTD/svg11.dtd"><svg t="1561688594821" class="icon" viewBox="0 0 1024 1024" version="1.1" xmlns="http://www.w3.org/2000/svg" p-id="29796" xmlns:xlink="http://www.w3.org/1999/xlink" width="200" height="200"><defs><style type="text/css"></style></defs><path d="M341.333333 298.666667h554.666667c25.6 0 42.666667-17.066667 42.666667-42.666667s-17.066667-42.666667-42.666667-42.666667H341.333333c-25.6 0-42.666667 17.066667-42.666666 42.666667s17.066667 42.666667 42.666666 42.666667zM896 469.333333H341.333333c-25.6 0-42.666667 17.066667-42.666666 42.666667s17.066667 42.666667 42.666666 42.666667h554.666667c25.6 0 42.666667-17.066667 42.666667-42.666667s-17.066667-42.666667-42.666667-42.666667zM896 725.333333H341.333333c-25.6 0-42.666667 17.066667-42.666666 42.666667s17.066667 42.666667 42.666666 42.666667h554.666667c25.6 0 42.666667-17.066667 42.666667-42.666667s-17.066667-42.666667-42.666667-42.666667zM98.133333 226.133333C89.6 234.666667 85.333333 243.2 85.333333 256s4.266667 21.333333 12.8 29.866667C106.666667 294.4 115.2 298.666667 128 298.666667s21.333333-4.266667 29.866667-12.8c8.533333-8.533333 12.8-17.066667 12.8-29.866667s-4.266667-21.333333-12.8-29.866667c-17.066667-17.066667-42.666667-17.066667-59.733334 0zM98.133333 482.133333C89.6 490.666667 85.333333 499.2 85.333333 512s4.266667 21.333333 12.8 29.866667C106.666667 550.4 115.2 554.666667 128 554.666667s21.333333-4.266667 29.866667-12.8c8.533333-8.533333 12.8-17.066667 12.8-29.866667s-4.266667-21.333333-12.8-29.866667c-17.066667-17.066667-42.666667-17.066667-59.733334 0zM98.133333 738.133333C89.6 746.666667 85.333333 755.2 85.333333 768s4.266667 21.333333 12.8 29.866667C106.666667 806.4 115.2 810.666667 128 810.666667s21.333333-4.266667 29.866667-12.8c8.533333-8.533333 12.8-17.066667 12.8-29.866667s-4.266667-21.333333-12.8-29.866667c-17.066667-17.066667-42.666667-17.066667-59.733334 0z" fill="#e6e6e6" p-id="29797"></path></svg>