<?xml version="1.0" standalone="no"?><!DOCTYPE svg PUBLIC "-//W3C//DTD SVG 1.1//EN" "http://www.w3.org/Graphics/SVG/1.1/DTD/svg11.dtd"><svg t="1561688610713" class="icon" viewBox="0 0 1024 1024" version="1.1" xmlns="http://www.w3.org/2000/svg" p-id="29968" xmlns:xlink="http://www.w3.org/1999/xlink" width="200" height="200"><defs><style type="text/css"></style></defs><path d="M527.36 906.24c-109.226667 0-212.48-42.666667-289.28-120.32C159.573333 708.266667 117.76 605.866667 117.76 496.64c0-109.226667 42.666667-212.48 120.32-289.28 36.693333-36.693333 80.213333-66.56 128-87.04 13.653333-5.973333 29.013333-2.56 39.253333 7.68 10.24 10.24 13.653333 25.6 7.68 39.253333-55.466667 128-27.306667 273.92 71.68 372.906667 64 64 148.48 98.986667 238.933334 98.986667 46.08 0 91.306667-9.386667 133.973333-27.306667 13.653333-5.973333 29.013333-2.56 39.253333 7.68 10.24 10.24 13.653333 25.6 7.68 39.253333-20.48 47.786667-49.493333 90.453333-87.04 128-78.506667 76.8-180.906667 119.466667-290.133333 119.466667zM319.146667 229.546667c-11.093333 8.533333-21.333333 17.92-30.72 27.306666-131.413333 131.413333-131.413333 346.453333 0 477.866667 64 64 148.48 98.986667 238.933333 98.986667 90.453333 0 174.933333-34.986667 238.933333-98.986667 10.24-10.24 18.773333-20.48 27.306667-30.72-23.04 4.266667-46.933333 5.973333-70.826667 5.973333-109.226667 0-212.48-42.666667-289.28-120.32-58.88-58.88-98.133333-133.973333-113.493333-215.893333-9.386667-47.786667-9.386667-96.426667-0.853333-144.213333z m0 0" p-id="29969" fill="#ffffff"></path></svg>