<?xml version="1.0" standalone="no"?><!DOCTYPE svg PUBLIC "-//W3C//DTD SVG 1.1//EN" "http://www.w3.org/Graphics/SVG/1.1/DTD/svg11.dtd"><svg t="1561693812796" class="icon" viewBox="0 0 1024 1024" version="1.1" xmlns="http://www.w3.org/2000/svg" p-id="38661" xmlns:xlink="http://www.w3.org/1999/xlink" width="200" height="200"><defs><style type="text/css"></style></defs><path d="M0 0" p-id="38662" fill="#ffffff"></path><path d="M82.6368 935.253333a17.089422 17.089422 0 0 1-16.349867-22.050133l245.76-812.305067a17.032533 17.032533 0 0 1 21.2992-11.400533 17.021156 17.021156 0 0 1 11.3664 21.265067l-245.76 812.373333A17.032533 17.032533 0 0 1 82.6368 935.253333z" p-id="38663" fill="#ffffff"></path><path d="M586.3424 935.253333a17.214578 17.214578 0 0 1-16.349867-12.117333l-245.76-812.3392a17.055289 17.055289 0 1 1 32.6656-9.864533l245.794134 812.3392a16.9984 16.9984 0 0 1-16.349867 21.981866zM796.535467 919.7568c-29.661867 0-59.016533-4.983467-84.411734-16.247467-43.997867-19.592533-68.573867-56.183467-69.12-103.1168-0.477867-34.645333 11.9808-63.829333 36.932267-86.7328 78.1312-71.714133 255.522133-55.261867 263.0656-54.510933a17.021156 17.021156 0 0 1 15.325867 18.602667 17.009778 17.009778 0 0 1-18.602667 15.325866c-1.672533-0.136533-169.8816-15.735467-236.714667 45.738667-17.7152 16.2816-26.180267 36.283733-25.873066 61.1328 0.443733 33.723733 16.896 58.0608 48.913066 72.328533 62.976 27.989333 162.338133 7.7824 202.683734-27.682133a17.066667 17.066667 0 0 1 22.528 25.634133c-33.28 29.320533-94.754133 49.493333-154.7264 49.527467z" p-id="38664" fill="#ffffff"></path><path d="M513.365333 723.490133h-341.333333a17.066667 17.066667 0 0 1 0-34.133333h341.333333a17.066667 17.066667 0 0 1 0 34.133333zM939.997867 911.223467c-9.386667 0-17.066667-7.645867-17.066667-17.066667V577.877333c-12.458667-22.459733-30.0032-36.488533-53.6576-43.008-79.4624-21.7088-194.730667 50.312533-195.822933 50.9952a17.1008 17.1008 0 0 1-23.552-5.290666 17.089422 17.089422 0 0 1 5.3248-23.552c5.188267-3.310933 129.262933-80.657067 223.061333-55.022934 34.133333 9.3184 60.0064 30.8224 76.936533 63.829334 1.2288 2.389333 1.877333 5.051733 1.877334 7.816533v320.580267a17.089422 17.089422 0 0 1-17.1008 16.9984z" p-id="38665" fill="#ffffff"></path></svg>